<svg width="60" height="60" viewBox="0 0 60 60" fill="none" xmlns="http://www.w3.org/2000/svg">
<rect width="60" height="60" fill="#407BFF"/>
<path d="M31.7756 42.1818V40.2642C31.7756 38.8911 32.0597 37.6364 32.6278 36.5C33.2079 35.3518 34.0483 34.4344 35.1491 33.7479C36.2618 33.0495 37.6054 32.7003 39.1797 32.7003C40.7895 32.7003 42.139 33.0436 43.228 33.7301C44.317 34.4167 45.1397 35.334 45.696 36.4822C46.2642 37.6304 46.5483 38.8911 46.5483 40.2642V42.1818C46.5483 43.5549 46.2642 44.8156 45.696 45.9638C45.1278 47.1001 44.2933 48.0175 43.1925 48.7159C42.1035 49.4025 40.7659 49.7457 39.1797 49.7457C37.5817 49.7457 36.2322 49.4025 35.1314 48.7159C34.0305 48.0175 33.196 47.1001 32.6278 45.9638C32.0597 44.8156 31.7756 43.5549 31.7756 42.1818ZM35.9126 40.2642V42.1818C35.9126 43.1998 36.1553 44.1231 36.6406 44.9517C37.1259 45.7803 37.9723 46.1946 39.1797 46.1946C40.3752 46.1946 41.2098 45.7803 41.6832 44.9517C42.1567 44.1231 42.3935 43.1998 42.3935 42.1818V40.2642C42.3935 39.2462 42.1626 38.3229 41.701 37.4943C41.2512 36.6657 40.4107 36.2514 39.1797 36.2514C37.996 36.2514 37.1555 36.6657 36.6584 37.4943C36.1612 38.3229 35.9126 39.2462 35.9126 40.2642ZM13.4872 21.3722V19.4545C13.4872 18.0814 13.7713 16.8208 14.3395 15.6726C14.9195 14.5244 15.7599 13.607 16.8608 12.9205C17.9735 12.2339 19.317 11.8906 20.8913 11.8906C22.5012 11.8906 23.8506 12.2339 24.9396 12.9205C26.0286 13.607 26.8513 14.5244 27.4077 15.6726C27.964 16.8208 28.2422 18.0814 28.2422 19.4545V21.3722C28.2422 22.7453 27.9581 24.0059 27.3899 25.1541C26.8336 26.2905 26.005 27.2079 24.9041 27.9062C23.8151 28.5928 22.4775 28.9361 20.8913 28.9361C19.2815 28.9361 17.9261 28.5928 16.8253 27.9062C15.7363 27.2079 14.9077 26.2905 14.3395 25.1541C13.7713 24.0059 13.4872 22.7453 13.4872 21.3722ZM17.642 19.4545V21.3722C17.642 22.3902 17.8788 23.3134 18.3523 24.142C18.8376 24.9706 19.6839 25.3849 20.8913 25.3849C22.075 25.3849 22.9036 24.9706 23.3771 24.142C23.8625 23.3134 24.1051 22.3902 24.1051 21.3722V19.4545C24.1051 18.4366 23.8743 17.5133 23.4126 16.6847C22.951 15.8561 22.1106 15.4418 20.8913 15.4418C19.7076 15.4418 18.8672 15.8561 18.37 16.6847C17.8847 17.5133 17.642 18.4366 17.642 19.4545ZM15.174 49L40.174 12.6364H44.4176L19.4176 49H15.174Z" fill="white"/>
</svg>
